# xmcd CD database file
#
# Track frame offsets:
#	150
#	18355
#	38238
#	61633
#	82113
#	101470
#	147758
#	165058
#	187016
#	198886
#
# Disc length: 2951 seconds
#
# Revision: 0
# Processed by: cddbd v1.4PL0 Copyright (c) Steve Scherf et al.
# Submitted via: CDex 1.50Beta5
#
DISCID=730b850a
DTITLE=Various Artist - Gentle Experience
DYEAR=1900
DGENRE=New Age
TTITLE0=Voyage Voyage 
TTITLE1=Pavane Pour ene Infante Defunte
TTITLE2=Allegro da "la primavera
TTITLE3=Semperoper
TTITLE4=Cocktail
TTITLE5=Moments In Love
TTITLE6=AngelFalls(Particular Beach)
TTITLE7=Beyond Time
TTITLE8=Alfle
TTITLE9=God Save the mona lisa
EXTD=
EXTT0=
EXTT1=
EXTT2=
EXTT3=
EXTT4=
EXTT5=
EXTT6=
EXTT7=
EXTT8=
EXTT9=
PLAYORDER=
